<svg xmlns="http://www.w3.org/2000/svg" style="display:none"><symbol id="icon-arrow_left" viewbox="0 0 40 40"><path fill="#231815" d="M17.6 24.5c-.1 0-.3 0-.4-.1l-3.3-3.3c-.6-.6-.6-1.5 0-2.1l3.3-3.3c.2-.2.5-.2.7 0s.2.5 0 .7l-3.3 3.3c-.2.2-.2.5 0 .7l3.3 3.3c.2.2.2.5 0 .7-.1.1-.2.1-.3.1z"/><path fill="#231815" d="M26.6 20.5h-12c-.3 0-.5-.2-.5-.5s.2-.5.5-.5h12c.3 0 .5.2.5.5s-.3.5-.5.5z"/></symbol><symbol id="icon-arrow_right" viewbox="0 0 17 10"><g fill="currentColor" fill-rule="nonzero"><path d="M12.4 9.5c-.1 0-.3 0-.4-.1-.2-.2-.2-.5 0-.7l3.3-3.3c.2-.2.2-.5 0-.7L12 1.4c-.2-.2-.2-.5 0-.7.2-.2.5-.2.7 0L16 4c.6.6.6 1.5 0 2.1l-3.3 3.3c0 .1-.1.1-.3.1z"/><path d="M15.4 5.5h-14c-.3 0-.5-.2-.5-.5s.2-.5.5-.5h14c.3 0 .5.2.5.5s-.2.5-.5.5z"/></g></symbol><symbol id="icon-arrow_up" viewbox="0 0 40 40"><path fill="#231815" d="M24 18.1c-.1 0-.3 0-.4-.1l-3.3-3.3c-.2-.2-.5-.2-.7 0L16.3 18c-.2.2-.5.2-.7 0s-.2-.5 0-.7l3.3-3.3c.6-.6 1.5-.6 2.1 0l3.3 3.3c.2.2.2.5 0 .7 0 0-.2.1-.3.1z"/><path fill="#231815" d="M20 27.1c-.3 0-.5-.2-.5-.5v-12c0-.3.2-.5.5-.5s.5.2.5.5v12c0 .2-.2.5-.5.5z"/></symbol><symbol id="icon-close" viewbox="0 0 12 12"><g fill="currentColor" fill-rule="nonzero"><path d="M11 11.5c-.1 0-.3 0-.4-.1l-10-10C.4 1.2.4.9.6.7c.2-.2.5-.2.7 0l10 10c.2.2.2.5 0 .7 0 .1-.2.1-.3.1z"/><path d="M1 11.5c-.1 0-.3 0-.4-.1-.2-.2-.2-.5 0-.7l10-10c.2-.2.5-.2.7 0 .2.2.2.5 0 .7l-10 10c0 .1-.2.1-.3.1z"/></g></symbol><symbol id="icon-download" viewbox="0 0 17 15"><path d="M7.4 12.9v1.2a.48.48 0 0 0 .21.421.426.426 0 0 0-.11-.021L6 12.9c-.2-.2-.2-.5 0-.7.2-.2.5-.2.7 0l.7.7V9.1c0-.3.2-.5.5-.5s.5.2.5.5v3.8l.7-.7c.2-.2.5-.2.7 0 .2.2.2.5 0 .7l-1.5 1.5a1.889 1.889 0 0 0-.116.064c-.092.08-.197.136-.284.136-.07 0-.19-.05-.29-.079zm7.16-2.9h-2.104c-.3 0-.5-.196-.5-.49s.2-.49.5-.49h2.104c.401 0 .802-.196 1.102-.49.301-.295.401-.687.301-1.177-.1-.49-.601-.98-1.202-1.078l-.601-.099c-.702-.098-1.103-.784-1.002-1.372l.1-.686v-.393c0-.784-.3-1.47-.802-1.96-.5-.49-1.302-.785-2.004-.785-1.002 0-2.004.687-2.405 1.667l-.2.392c-.2.49-.701.785-1.303.686l-.5-.098C5.141 3.53 4.14 4.117 3.838 5l-.1.392c-.2.49-.501.784-1.002.784l-.501.099c-.401.098-.802.294-1.002.686-.2.392-.3.784-.1 1.176.2.49.801.883 1.402.883H4.54c.301 0 .501.196.501.49s-.3.49-.6.49H2.435C1.334 10 .432 9.412.132 8.431c-.2-.686-.2-1.372.2-1.96.4-.589 1.002-.98 1.703-1.079l.501-.098c.1 0 .2-.098.2-.196l.101-.392c.4-1.177 1.603-2.059 2.906-2.059h.3l.501.098c.1 0 .2 0 .301-.098l.2-.392A4.018 4.018 0 0 1 10.352 0c1.002 0 2.004.294 2.806.98.7.687 1.202 1.667 1.202 2.647 0 .197 0 .393-.1.589l-.1.686c0 .098.1.294.2.294l.601.098c1.002.196 1.804.882 2.004 1.863.1.686 0 1.372-.5 1.96A2.49 2.49 0 0 1 14.56 10z" fill="currentColor" fill-rule="nonzero"/></symbol><symbol id="icon-facebook"><path d="M6.553.003L4.92 0C3.085 0 1.899 1.256 1.899 3.2v1.474H.257A.261.261 0 0 0 0 4.94v2.137c0 .146.115.265.257.265h1.642v5.393c0 .146.115.265.257.265h2.142a.261.261 0 0 0 .257-.265V7.342h1.92a.261.261 0 0 0 .257-.265l.001-2.137a.27.27 0 0 0-.075-.188.253.253 0 0 0-.182-.078h-1.92v-1.25c0-.601.138-.906.897-.906h1.1a.261.261 0 0 0 .257-.266V.268a.261.261 0 0 0-.257-.265z" fill="currentColor" fill-rule="nonzero"/></symbol><symbol id="icon-instagram" viewbox="0 0 13 13"><path d="M1.669 0h9.663C12.249 0 13 .68 13 1.668v9.664C13 12.32 12.25 13 11.332 13H1.669C.75 13 0 12.32 0 11.332V1.668C0 .68.75 0 1.669 0zM9.47 1.444a.587.587 0 0 0-.585.586v1.4c0 .322.263.586.585.586h1.47a.587.587 0 0 0 .585-.586v-1.4a.587.587 0 0 0-.586-.586H9.47zm2.06 4.054h-1.143c.108.353.166.728.166 1.115 0 2.162-1.809 3.915-4.04 3.915-2.232 0-4.041-1.753-4.041-3.915 0-.388.058-.762.167-1.115H1.445v5.491c0 .284.232.517.516.517h9.053a.518.518 0 0 0 .517-.517V5.498zM6.513 3.942c-1.442 0-2.61 1.133-2.61 2.53 0 1.397 1.168 2.53 2.61 2.53s2.611-1.133 2.611-2.53c0-1.397-1.169-2.53-2.61-2.53z" fill="currentColor" fill-rule="nonzero"/></symbol><symbol id="icon-mail" viewbox="0 0 40 40"><path fill="#231815" d="M25.3 26H14.7c-1.5 0-2.7-1.2-2.7-2.7v-6.7c0-1.5 1.2-2.7 2.7-2.7h10.7c1.5 0 2.7 1.2 2.7 2.7v6.7c-.1 1.5-1.3 2.7-2.8 2.7zM14.7 15c-.9 0-1.7.8-1.7 1.7v6.7c0 .9.8 1.7 1.7 1.7h10.7c.9 0 1.7-.8 1.7-1.7v-6.7c0-.9-.8-1.7-1.7-1.7H14.7z"/><path fill="#231815" d="M27.8 17.4L21.6 21c-.4.3-1 .4-1.6.4s-1.1-.1-1.6-.4l-6.2-3.6.5-.9 6.2 3.6c.6.3 1.6.3 2.1 0l6.2-3.6.6.9z"/><path fill="#231815" d="M16.644 19.27l.775.632-4.3 5.268-.775-.632zM23.402 19.292l4.3 5.268-.774.632-4.3-5.267z"/></symbol><symbol id="icon-menu" viewbox="0 0 14 11"><g fill="currentColor" fill-rule="evenodd"><path d="M0 0h14v1H0zM5 5h9v1H5zM0 10h14v1H0z"/></g></symbol><symbol id="icon-plus" viewbox="0 0 40 40"><path fill="currentColor" d="M26 20.5H14c-.3 0-.5-.2-.5-.5s.2-.5.5-.5h12c.3 0 .5.2.5.5s-.2.5-.5.5z"/><path fill="currentColor" d="M20 26.5c-.3 0-.5-.2-.5-.5V14c0-.3.2-.5.5-.5s.5.2.5.5v12c0 .3-.2.5-.5.5z"/></symbol><symbol id="icon-telephone" viewbox="0 0 40 40"><path fill="#231815" d="M23.5 28.5c-.9 0-1.8-.3-2.5-.8-2.1-1.5-3.5-2.8-4.7-4-1.2-1.2-2.5-2.6-4-4.7-1.5-2-.9-4.6 1.4-7 .7-.7 1.9-.7 2.6 0l1.4 1.4c.3.3.5.8.5 1.3s-.2 1-.5 1.3l-.6.6c-.2.2-.1.5 0 .7.7.9 1.9 2.2 2.6 2.8.7.7 1.9 1.9 2.8 2.6.2.2.5.2.7 0l.6-.6c.7-.7 1.9-.7 2.6 0l1.4 1.4c.3.3.5.8.5 1.3s-.2 1-.5 1.3c-1.3 1.6-2.8 2.4-4.3 2.4zm-8.5-16c-.2 0-.4.1-.6.2-2 2-2.4 4.1-1.3 5.7 1.5 2.1 2.7 3.4 3.9 4.6 1.2 1.2 2.5 2.4 4.6 3.9 1.6 1.1 3.7.7 5.7-1.3.2-.2.2-.4.2-.6 0-.2-.1-.4-.2-.6L25.8 23c-.3-.3-.9-.3-1.2 0l-.6.6c-.5.5-1.3.5-2 0-1-.7-2.2-2-2.9-2.7-.7-.7-2-2-2.7-2.9-.5-.7-.5-1.5 0-2l.6-.6c.2-.2.2-.4.2-.6 0-.2-.1-.4-.2-.6l-1.4-1.4c-.2-.2-.4-.3-.6-.3z"/></symbol></svg>