<?xml version="1.0" encoding="UTF-8"?>
<svg viewBox="0 0 17 10" version="1.1" xmlns="http://www.w3.org/2000/svg" xmlns:xlink="http://www.w3.org/1999/xlink">
    <g id="Symbols" stroke="none" stroke-width="1" fill="none" fill-rule="evenodd">
        <g id="Footer" transform="translate(-229.000000, -243.000000)" fill="currentColor" fill-rule="nonzero">
            <g id="Button_contact">
                <g transform="translate(100.000000, 228.000000)">
                    <g id="arrow" transform="translate(129.000000, 15.000000)">
                        <path d="M12.4,9.5 C12.3,9.5 12.1,9.5 12,9.4 C11.8,9.2 11.8,8.9 12,8.7 L15.3,5.4 C15.5,5.2 15.5,4.9 15.3,4.7 L12,1.4 C11.8,1.2 11.8,0.9 12,0.7 C12.2,0.5 12.5,0.5 12.7,0.7 L16,4 C16.6,4.6 16.6,5.5 16,6.1 L12.7,9.4 C12.7,9.5 12.6,9.5 12.4,9.5 Z" id="Shape"></path>
                        <path d="M15.4,5.5 L1.4,5.5 C1.1,5.5 0.9,5.3 0.9,5 C0.9,4.7 1.1,4.5 1.4,4.5 L15.4,4.5 C15.7,4.5 15.9,4.7 15.9,5 C15.9,5.3 15.7,5.5 15.4,5.5 Z" id="Shape"></path>
                    </g>
                </g>
            </g>
        </g>
    </g>
</svg>
