<?xml version="1.0" encoding="UTF-8"?>
<svg viewBox="0 0 12 12" version="1.1" xmlns="http://www.w3.org/2000/svg" xmlns:xlink="http://www.w3.org/1999/xlink">
    <g id="Page-1" stroke="none" stroke-width="1" fill="none" fill-rule="evenodd">
        <g id="close" fill="currentColor" fill-rule="nonzero">
            <path d="M11,11.5 C10.9,11.5 10.7,11.5 10.6,11.4 L0.6,1.4 C0.4,1.2 0.4,0.9 0.6,0.7 C0.8,0.5 1.1,0.5 1.3,0.7 L11.3,10.7 C11.5,10.9 11.5,11.2 11.3,11.4 C11.3,11.5 11.1,11.5 11,11.5 Z" id="Shape"></path>
            <path d="M1,11.5 C0.9,11.5 0.7,11.5 0.6,11.4 C0.4,11.2 0.4,10.9 0.6,10.7 L10.6,0.7 C10.8,0.5 11.1,0.5 11.3,0.7 C11.5,0.9 11.5,1.2 11.3,1.4 L1.3,11.4 C1.3,11.5 1.1,11.5 1,11.5 Z" id="Shape"></path>
        </g>
    </g>
</svg>
