<svg viewBox="0 0 17 15" version="1.1" xmlns="http://www.w3.org/2000/svg" xmlns:xlink="http://www.w3.org/1999/xlink">
    <g stroke="none" stroke-width="1" fill="none" fill-rule="evenodd">
        <g fill="currentColor" fill-rule="nonzero">
            <path d="M7.4,12.9 L7.4,14.1 C7.4,14.2877962 7.47837202,14.4364064 7.61058613,14.5213006 C7.56838135,14.5088577 7.52976184,14.5 7.5,14.5 L6,12.9 C5.8,12.7 5.8,12.4 6,12.2 C6.2,12 6.5,12 6.7,12.2 L7.4,12.9 L7.4,9.1 C7.4,8.8 7.6,8.6 7.9,8.6 C8.2,8.6 8.4,8.8 8.4,9.1 L8.4,12.9 L9.1,12.2 C9.3,12 9.6,12 9.8,12.2 C10,12.4 10,12.7 9.8,12.9 L8.3,14.4 C8.25694863,14.4215257 8.2185308,14.4430514 8.18374913,14.4635797 C8.09215521,14.5436187 7.98682034,14.5999118 7.90020351,14.5999999 C7.9001357,14.6 7.90006785,14.6 7.9,14.6 C7.82976184,14.6 7.71018969,14.550666 7.61058613,14.5213006 Z M14.5603049,10 L12.4561235,10 C12.1555262,10 11.955128,9.80392157 11.955128,9.50980392 C11.955128,9.21568627 12.1555262,9.01960784 12.4561235,9.01960784 L14.5603049,9.01960784 C14.9611014,9.01960784 15.3618979,8.82352941 15.6624952,8.52941176 C15.9630925,8.23529412 16.0632917,7.84313725 15.9630925,7.35294118 C15.8628934,6.8627451 15.3618979,6.37254902 14.7607032,6.2745098 L14.1595085,6.17647059 C13.4581147,6.07843137 13.0573182,5.39215686 13.1575173,4.80392157 L13.2577164,4.11764706 C13.2577164,3.92156863 13.2577164,3.82352941 13.2577164,3.7254902 C13.2577164,2.94117647 12.9571191,2.25490196 12.4561235,1.76470588 C11.955128,1.2745098 11.153535,0.980392157 10.4521412,0.980392157 C9.45015009,0.980392157 8.44815895,1.66666667 8.04736249,2.64705882 L7.84696426,3.03921569 C7.64656603,3.52941176 7.14557045,3.82352941 6.54437577,3.7254902 L6.04338019,3.62745098 C5.14158816,3.52941176 4.13959702,4.11764706 3.83899967,5 L3.73880056,5.39215686 C3.53840233,5.88235294 3.23780498,6.17647059 2.73680941,6.17647059 L2.23581384,6.2745098 C1.83501738,6.37254902 1.43422092,6.56862745 1.23382269,6.96078431 C1.03342446,7.35294118 0.933225346,7.74509804 1.13362358,8.1372549 C1.3340218,8.62745098 1.93521649,9.01960784 2.53641118,9.01960784 L4.54039347,9.01960784 C4.84099082,9.01960784 5.04138905,9.21568627 5.04138905,9.50980392 C5.04138905,9.80392157 4.7407917,10 4.44019436,10 L2.43621207,10 C1.3340218,10 0.432229773,9.41176471 0.131632429,8.43137255 C-0.0687658008,7.74509804 -0.0687658008,7.05882353 0.332030658,6.47058824 C0.732827116,5.88235294 1.3340218,5.49019608 2.03541561,5.39215686 L2.53641118,5.29411765 C2.6366103,5.29411765 2.73680941,5.19607843 2.73680941,5.09803922 L2.83700852,4.70588235 C3.23780498,3.52941176 4.44019436,2.64705882 5.74278285,2.64705882 C5.84298196,2.64705882 5.94318108,2.64705882 6.04338019,2.64705882 L6.54437577,2.74509804 C6.64457488,2.74509804 6.744774,2.74509804 6.84497311,2.64705882 L7.04537134,2.25490196 C7.64656603,0.980392157 8.94915452,0.0980392157 10.3519421,0 C11.3539333,0 12.3559244,0.294117647 13.1575173,0.980392157 C13.8589111,1.66666667 14.3599067,2.64705882 14.3599067,3.62745098 C14.3599067,3.82352941 14.3599067,4.01960784 14.2597076,4.21568627 L14.1595085,4.90196078 C14.1595085,5 14.2597076,5.19607843 14.3599067,5.19607843 L14.9611014,5.29411765 C15.9630925,5.49019608 16.7646855,6.17647059 16.9650837,7.15686275 C17.0652828,7.84313725 16.9650837,8.52941176 16.4640881,9.11764706 C15.9630925,9.70588235 15.2616987,10 14.5603049,10 Z"></path>
        </g>
    </g>
</svg>
