<?xml version="1.0" encoding="UTF-8"?>
<svg width="7px" height="13px" viewBox="0 0 7 13" version="1.1" xmlns="http://www.w3.org/2000/svg" xmlns:xlink="http://www.w3.org/1999/xlink">
    <!-- Generator: Sketch 49.2 (51160) - http://www.bohemiancoding.com/sketch -->
    <title>facebook-logo</title>
    <desc>Created with Sketch.</desc>
    <defs></defs>
    <g id="BBF_Final_Desktop" stroke="none" stroke-width="1" fill="none" fill-rule="evenodd">
        <g id="Nav" transform="translate(-953.000000, -507.000000)" fill="#FFFFFF" fill-rule="nonzero">
            <g id="Social" transform="translate(936.000000, 369.000000)">
                <g id="Group-5-Copy" transform="translate(1.000000, 125.000000)">
                    <g id="facebook-logo" transform="translate(16.000000, 13.000000)">
                        <path d="M6.55309713,0.00270486772 L4.91980201,0 C3.08485095,0 1.89902497,1.25573484 1.89902497,3.19931754 L1.89902497,4.67441715 L0.256819771,4.67441715 C0.114913744,4.67441715 0,4.79316085 0,4.93962943 L0,7.07688066 C0,7.22334925 0.115044775,7.3419577 0.256819771,7.3419577 L1.89902497,7.3419577 L1.89902497,12.734923 C1.89902497,12.8813916 2.01393871,13 2.15584474,13 L4.2984554,13 C4.44036142,13 4.55527517,12.8812563 4.55527517,12.734923 L4.55527517,7.3419577 L6.47539605,7.3419577 C6.61730207,7.3419577 6.73221582,7.22334925 6.73221582,7.07688066 L6.733002,4.93962943 C6.733002,4.86930287 6.70587869,4.80195167 6.6577905,4.7521821 C6.6097023,4.70241253 6.54418706,4.67441715 6.4760512,4.67441715 L4.55527517,4.67441715 L4.55527517,3.42395681 C4.55527517,2.8229352 4.69403646,2.51782612 5.452572,2.51782612 L6.55283507,2.51742039 C6.69461007,2.51742039 6.80952381,2.3986767 6.80952381,2.25234335 L6.80952381,0.267781904 C6.80952381,0.121583804 6.6947411,0.00297535449 6.55309713,0.00270486772 Z" id="Shape"></path>
                    </g>
                </g>
            </g>
        </g>
    </g>
</svg>