<?xml version="1.0" encoding="UTF-8"?>
<svg width="13px" height="13px" viewBox="0 0 13 13" version="1.1" xmlns="http://www.w3.org/2000/svg" xmlns:xlink="http://www.w3.org/1999/xlink">
    <!-- Generator: Sketch 49.2 (51160) - http://www.bohemiancoding.com/sketch -->
    <title>003-instagram-social-network-logo-of-photo-camera</title>
    <desc>Created with Sketch.</desc>
    <defs></defs>
    <g id="BBF_Final_Desktop" stroke="none" stroke-width="1" fill="none" fill-rule="evenodd">
        <g id="Nav" transform="translate(-1000.000000, -507.000000)" fill="#FFFFFF" fill-rule="nonzero">
            <g id="Social" transform="translate(936.000000, 369.000000)">
                <g id="Group-6-Copy" transform="translate(51.000000, 125.000000)">
                    <g id="003-instagram-social-network-logo-of-photo-camera" transform="translate(13.000000, 13.000000)">
                        <path d="M1.66861408,0 L11.3315194,0 C12.2491837,0 13,0.679398326 13,1.66846347 L13,11.3315365 C13,12.3206017 12.2491837,13 11.3315194,13 L1.66861408,13 C0.750682794,13 0,12.3206017 0,11.3315365 L0,1.66846347 C0,0.679398326 0.750682794,0 1.66861408,0 Z M9.47002895,1.44435546 C9.14807894,1.44435546 8.88499292,1.70757226 8.88499292,2.02965245 L8.88499292,3.43049438 C8.88499292,3.75244109 9.14807894,4.01579137 9.47002895,4.01579137 L10.9393597,4.01579137 C11.2613097,4.01579137 11.5246627,3.75244109 11.5246627,3.43049438 L11.5246627,2.02965245 C11.5246627,1.70757226 11.2613097,1.44435546 10.9393597,1.44435546 L9.47002895,1.44435546 Z M11.5308027,5.49765388 L10.3866255,5.49765388 C10.4948765,5.85110119 10.5534735,6.22550439 10.5534735,6.61285487 C10.5534735,8.77518353 8.74403967,10.5280045 6.5124135,10.5280045 C4.2809208,10.5280045 2.47175391,8.77518353 2.47175391,6.61285487 C2.47175391,6.22523744 2.53021747,5.85096771 2.63860197,5.49765388 L1.44463725,5.49765388 L1.44463725,10.9890343 C1.44463725,11.273207 1.6771567,11.5058576 1.9614658,11.5058576 L11.0142411,11.5058576 C11.2985502,11.5058576 11.5310697,11.2733405 11.5310697,10.9890343 L11.5310697,5.49765388 L11.5308027,5.49765388 Z M6.51228002,3.94197854 C5.07044582,3.94197854 3.90144157,5.07453155 3.90144157,6.4717696 C3.90144157,7.86900765 5.07044582,9.00156066 6.51228002,9.00156066 C7.95424769,9.00156066 9.12338542,7.86900765 9.12338542,6.4717696 C9.12338542,5.07453155 7.95438117,3.94197854 6.51228002,3.94197854 Z" id="Shape"></path>
                    </g>
                </g>
            </g>
        </g>
    </g>
</svg>